<svg xmlns="http://www.w3.org/2000/svg" width="175" height="35" viewBox="0 0 175 35">
    <g fill="none" fill-rule="evenodd">
        <g fill="#FFF" fill-rule="nonzero">
            <g>
                <g>
                    <path d="M3.757 19.499L0 21.665 26.682 34.799 50.001 21.665 45.529 19.941 26.333 30.227z" transform="translate(-38 -45) translate(38 45)"/>
                    <path d="M2.659 12.345L7.05 14.466 30.06 1.697 25.588 0zM11.965 16.333L16.356 18.454 39.366 5.686 34.894 3.988zM20.95 20.578L25.353 22.834 48.672 9.7 44.199 7.976z" opacity=".7" transform="translate(-38 -45) translate(38 45)"/>
                </g>
                <g>
                    <path d="M10.392 16.453v-3.134H3.595L3.618.323H0v16.13h10.392zm15.469 0v-3.134h-7.282v-3.64h6.13v-2.79h-6.13V3.457h7.282V.323h-10.9v16.13h10.9zm7.634 0l1.152-3.733h5.161l1.176 3.733h3.64L38.933.323h-3.341l-5.738 16.13h3.64zm5.438-6.475h-3.41l1.612-5.208h.139l1.659 5.208zm15.26 6.682c1.138 0 2.163-.207 3.077-.622.914-.415 1.632-1.006 2.155-1.774.522-.768.783-1.66.783-2.673 0-1.383-.43-2.435-1.29-3.157-.86-.722-1.898-1.214-3.111-1.475l-1.867-.415c-.537-.107-.998-.307-1.382-.599-.384-.292-.576-.691-.576-1.198 0-.522.173-.945.518-1.268.346-.322.81-.483 1.394-.483.753 0 1.302.21 1.648.633.345.423.518.88.518 1.371v.07H60v-.116c0-.83-.23-1.624-.69-2.385-.461-.76-1.145-1.378-2.051-1.855C56.352.238 55.277 0 54.033 0c-1.091 0-2.067.192-2.927.576-.86.384-1.532.937-2.016 1.66-.484.721-.726 1.581-.726 2.58 0 1.536.468 2.642 1.406 3.318.937.676 1.943 1.137 3.018 1.383l1.844.368c.507.108.937.312 1.29.611.353.3.53.695.53 1.187 0 .553-.2.998-.6 1.336-.398.338-.928.507-1.589.507-.768 0-1.352-.23-1.751-.691-.4-.46-.6-.968-.6-1.52v-.162h-3.94v.184c0 .891.242 1.748.726 2.57.484.821 1.198 1.486 2.143 1.993.945.507 2.062.76 3.353.76z" transform="translate(-38 -45) translate(38 45) translate(61.967 .574)"/>
                    <path d="M86.768 16.13v-5.645h1.867l3.157 5.645h3.756L92.09 10c1.014-.414 1.782-1.04 2.305-1.877.522-.838.783-1.778.783-2.823 0-.937-.215-1.809-.645-2.615-.43-.807-1.087-1.456-1.97-1.948C91.68.246 90.6 0 89.326 0h-6.13v16.13h3.572zm1.982-8.572h-1.982V3.134h1.982c.845 0 1.548.165 2.109.495.56.33.84.887.84 1.67 0 .815-.284 1.395-.852 1.74-.568.346-1.267.52-2.097.52zm12.98 8.572l1.152-3.733h5.162l1.175 3.733h3.64L107.169 0h-3.341l-5.738 16.13h3.64zm5.438-6.475h-3.41l1.613-5.208h.138l1.659 5.208z" opacity=".7" transform="translate(-38 -45) translate(38 45) translate(61.967 .574)"/>
                    <g opacity=".7">
                        <path d="M12.623 2.869L12.623 0 0 0 0 2.869zM12.623 9.18L12.623 6.311 0 6.311 0 9.18zM12.623 15.492L12.623 12.623 0 12.623 0 15.492z" transform="translate(-38 -45) translate(38 45) translate(61.967 .574) translate(65.41 .574)"/>
                    </g>
                </g>
                <g font-family="BeVietnam-Regular, Be Vietnam" font-size="10.328" opacity=".7">
                    <text transform="translate(-38 -45) translate(38 45) translate(68.279 18.934)">
                        <tspan x="0" y="12">a new life on leasing</tspan>
                    </text>
                </g>
            </g>
        </g>
    </g>
</svg>
